
<svg xmlns="http://www.w3.org/2000/svg" viewBox="0 0 24 24">
  <path d="M12 0C5.372 0 0 5.372 0 12s5.372 12 12 12 12-5.372 12-12S18.628 0 12 0zm0 2.087c2.73 0 5.203 1.13 6.981 2.945l-1.24 1.239a8.257 8.257 0 0 0-5.741-2.31 8.287 8.287 0 0 0-8.276 8.276 8.276 8.276 0 1 0 13.678-6.228l-5.393 5.262-3.896-3.896 10.972-10.73A11.776 11.776 0 0 0 12 2.087z" fill="#EA4335"/>
  <path d="M17.7 15.613a6.191 6.191 0 0 1-11.337 0L2.089 12A9.791 9.791 0 0 0 12 21.913a9.791 9.791 0 0 0 9.911-9.913l-4.21 3.613z" fill="#4285F4"/>
  <path d="M19.322 4.948 6.348 17.922c.326.314.706.628 1.043.884l13.761-13.76a11.812 11.812 0 0 0-1.83-2.098z" fill="#34A853"/>
</svg>
