
<svg xmlns="http://www.w3.org/2000/svg" viewBox="0 0 32 32" fill="#326CE5">
  <path d="M15.9.476a2.14 2.14 0 0 0-.823.218L3.932 6.01c-.582.277-1.005.804-1.15 1.432L.305 19.573c-.13.595-.027 1.213.307 1.71.33.494.848.798 1.401.892l12.35 2.11c.324.047.65.043.975-.007l13.1-2.14c.554-.1 1.068-.407 1.392-.907.325-.5.422-1.12.283-1.712L27.604 7.374c-.151-.63-.579-1.156-1.168-1.432L15.247.694a2.14 2.14 0 0 0-.827-.218h-.52zm.135 1.58c.1.015.195.042.284.082l9.568 4.551a.54.54 0 0 1 .283.29l2.384 9.76a.55.55 0 0 1-.052.416.52.52 0 0 1-.283.19l-10.014 1.78a.525.525 0 0 1-.366-.007l-9.573-1.684a.52.52 0 0 1-.32-.218.54.54 0 0 1-.068-.39l2.223-9.586a.54.54 0 0 1 .273-.318L15.7 2.16c.115-.06.24-.088.364-.082z"/>
  <path d="M16.012 7.847c-.081.007-.153.037-.217.089l-3.22 2.592c-.063.05-.099.124-.099.204l.001 4.63c0 .08.035.155.098.206l3.22 2.618c.064.052.15.08.234.08.083 0 .17-.028.234-.08l3.22-2.618a.267.267 0 0 0 .098-.207v-4.63c0-.08-.036-.154-.098-.204l-3.22-2.591a.279.279 0 0 0-.252-.089z"/>
</svg>
