
<svg xmlns="http://www.w3.org/2000/svg" viewBox="0 0 24 24" fill="#E6522C">
  <path d="M12 2.4c-5.302 0-9.6 4.298-9.6 9.6s4.298 9.6 9.6 9.6 9.6-4.298 9.6-9.6-4.298-9.6-9.6-9.6zm0 1.2a8.4 8.4 0 0 1 8.4 8.4 8.4 8.4 0 0 1-8.4 8.4 8.4 8.4 0 0 1-8.4-8.4 8.4 8.4 0 0 1 8.4-8.4zm-1.204 1.704c-.108.19-.24.54-.3.72-.245.84-.313 1.066-.414 1.326 0 0-.413 1.136-1.182 1.146-.72.01-1.006-.96-1.006-.96l.12-1.236-.66.12H7.2v3.72h.72v-1.8c.33.6.9.9 1.5.9.84 0 1.5-.42 1.74-1.08.254-.6.475-1.284.6-1.86L12 7.98l.12-.6.12-.72.12-.6.12-.756h-1.56l-.124.6zM9.6 6.6v2.4H9V6.6h.6zm6.006 1.194c-1.08 0-1.8.9-1.8 1.8 0 1.02.72 1.8 1.8 1.8s1.8-.78 1.8-1.8c0-.9-.72-1.8-1.8-1.8zm.006 1.206c.2 0 .4.22.4.6 0 .33-.2.6-.4.6-.26 0-.4-.27-.4-.6 0-.38.14-.6.4-.6zm-5.106.6c-.547 0-1.017.285-1.267.709l-.239-.709h-.6V13.8h.6v-2.506h.01a.878.878 0 0 0 1.696.002v-1.8h-.6v.104zm-3.906 0V13.8h.6V9.6h-.6zm4.8.6c-.502 0-.9.398-.9.9 0 .502.398.9.9.9.502 0 .9-.398.9-.9 0-.502-.398-.9-.9-.9zm6.006 0c-.502 0-.9.398-.9.9 0 .502.398.9.9.9.502 0 .9-.398.9-.9 0-.502-.398-.9-.9-.9zm-10.2 3h-.012c-.66 0-1.2.54-1.2 1.2 0 .666.54 1.2 1.2 1.2.66 0 1.2-.534 1.2-1.2 0-.66-.54-1.2-1.2-1.2zm10.2 0c-.502 0-.9.398-.9.9 0 .502.398.9.9.9.502 0 .9-.398.9-.9 0-.502-.398-.9-.9-.9zm-4.8 1.2a.599.599 0 1 0 0 1.2.599.599 0 1 0 0-1.2z"/>
</svg>
